# xmcd
#
# Track frame offsets:
#	150
#	12544
#	26454
#	40736
#	54633
#	66420
#	78162
#	97357
#	115386
#	135366
#	150028
#	161625
#	170867
#	186027
#	199914
#	218479
#	230031
#	241673
#	261478
#	275653
#	288291
#	301319
#
# Disc length: 4216 seconds
#
# Revision: 1
# Processed by: cddbd v1.5.1PL2 Copyright (c) Steve Scherf et al.
# Submitted via: audiograbber 1.83.01
#
DISCID=39107616
DTITLE=Susan Mccann - My Heroes Disc 2
DYEAR=1900
DGENRE=Country
TTITLE0=You Don't Have To Say You Love Me
TTITLE1=Rose Garden
TTITLE2=Queen Of Hearts
TTITLE3=Never Mind
TTITLE4=Shutters and Boards
TTITLE5=Delta Dawn
TTITLE6=Galway To Graceland
TTITLE7=Wind Beneath My Wings
TTITLE8=Mississippi
TTITLE9=Tennessee Mountain Home
TTITLE10=I Cried All The Way To The Altar
TTITLE11=You Ain't Woman Enough To Take My Man
TTITLE12=Blue Velvet
TTITLE13=Medals For Mother
TTITLE14=You Seldom Come To See Me Anymore
TTITLE15=Before The Next Teardrop Falls
TTITLE16=The Last Thing On My Mind
TTITLE17=Back Home Again
TTITLE18=Coat Of Many Colors
TTITLE19=Am I That Easy To Forget
TTITLE20=Oh Lonesome Me
TTITLE21=Always
EXTD=
EXTT0=
EXTT1=
EXTT2=
EXTT3=
EXTT4=
EXTT5=
EXTT6=
EXTT7=
EXTT8=
EXTT9=
EXTT10=
EXTT11=
EXTT12=
EXTT13=
EXTT14=
EXTT15=
EXTT16=
EXTT17=
EXTT18=
EXTT19=
EXTT20=
EXTT21=
PLAYORDER=
